# xmcd
#
# Track frame offsets:
#	150
#	14895
#	27370
#	41253
#	56083
#	71998
#	86868
#	99973
#	114985
#	131328
#	145585
#	157370
#	171538
#	183645
#	198428
#	213165
#	228603
#	243173
#
# Disc length: 3431 seconds
#
# Revision: 3
# Processed by: cddbd v1.5.1PL0 Copyright (c) Steve Scherf et al.
# Submitted via: audiograbber 1.83.01
#
DISCID=090d6512
DTITLE=Various Artist - Ladies Sing The Blues
DYEAR=1900
DGENRE=Blues
TTITLE0=Mary Dixon - You Can't Sleep In My Bed
TTITLE1=Mildred Bailey - St. Louis Blues
TTITLE2=Alberta Hunter - You Can't Tell The Difference After Dark
TTITLE3=Ma Rainey - Jealous Hearted Woman
TTITLE4=Bessie Smith - Do Your Duty
TTITLE5=Ethel Waters - Sweet Georgia Brown
TTITLE6=Memphis Minnie - What's The Matter With The Mill
TTITLE7=Billie Holiday - Loveless Love
TTITLE8=Maxine Sullivan - It Aint Necessarily So
TTITLE9=Bessie Smith - Reckless Love
TTITLE10=Sister Rosetta Tharpe - Trouble In Mind
TTITLE11=Gladys Bentley - How Much Can I Stand
TTITLE12=Mildred Bailey - Rockin' Chair
TTITLE13=Memphis Minnie - When The Levee Breaks
TTITLE14=Bessie Smith - Weeping Willow Blues
TTITLE15=Ethel Waters - Snake That Thing
TTITLE16=Billie Holiday - I'm In A Lowdown Groove
TTITLE17=Ma Rainey - Ma Rainey's Black Bottom
EXTD=
EXTT0=
EXTT1=
EXTT2=
EXTT3=
EXTT4=
EXTT5=
EXTT6=
EXTT7=
EXTT8=
EXTT9=
EXTT10=
EXTT11=
EXTT12=
EXTT13=
EXTT14=
EXTT15=
EXTT16=
EXTT17=
PLAYORDER=
